<svg width="20" height="20" viewBox="0 0 20 20" fill="none" xmlns="http://www.w3.org/2000/svg">
<path d="M13.3334 18.9582H6.66678C2.81677 18.9582 2.10011 17.1665 1.91677 15.4248L1.29177 8.74984C1.20011 7.87484 1.17511 6.58317 2.04177 5.6165C2.79177 4.78317 4.03344 4.38317 5.83344 4.38317H14.1668C15.9751 4.38317 17.2168 4.7915 17.9584 5.6165C18.8251 6.58317 18.8001 7.87484 18.7084 8.75817L18.0834 15.4165C17.9001 17.1665 17.1834 18.9582 13.3334 18.9582ZM5.83344 5.62484C4.42511 5.62484 3.45844 5.89984 2.96677 6.44984C2.55844 6.89984 2.42511 7.5915 2.53344 8.62484L3.15844 15.2998C3.30011 16.6165 3.65844 17.7082 6.66678 17.7082H13.3334C16.3334 17.7082 16.7001 16.6165 16.8418 15.2915L17.4668 8.63317C17.5751 7.5915 17.4418 6.89984 17.0334 6.44984C16.5418 5.89984 15.5751 5.62484 14.1668 5.62484H5.83344Z" fill="#7E92A2"/>
<path d="M13.3334 5.62484C12.9918 5.62484 12.7084 5.3415 12.7084 4.99984V4.33317C12.7084 2.84984 12.7084 2.2915 10.6668 2.2915H9.33344C7.29177 2.2915 7.29178 2.84984 7.29178 4.33317V4.99984C7.29178 5.3415 7.00844 5.62484 6.66678 5.62484C6.32511 5.62484 6.04178 5.3415 6.04178 4.99984V4.33317C6.04178 2.8665 6.04177 1.0415 9.33344 1.0415H10.6668C13.9584 1.0415 13.9584 2.8665 13.9584 4.33317V4.99984C13.9584 5.3415 13.6751 5.62484 13.3334 5.62484Z" fill="#7E92A2"/>
<path d="M10.0001 13.9582C7.70844 13.9582 7.70844 12.5415 7.70844 11.6915V10.8332C7.70844 9.65817 7.99177 9.37484 9.16677 9.37484H10.8334C12.0084 9.37484 12.2918 9.65817 12.2918 10.8332V11.6665C12.2918 12.5332 12.2918 13.9582 10.0001 13.9582ZM8.95844 10.6248C8.95844 10.6915 8.95844 10.7665 8.95844 10.8332V11.6915C8.95844 12.5498 8.95844 12.7082 10.0001 12.7082C11.0418 12.7082 11.0418 12.5748 11.0418 11.6832V10.8332C11.0418 10.7665 11.0418 10.6915 11.0418 10.6248C10.9751 10.6248 10.9001 10.6248 10.8334 10.6248H9.16677C9.10011 10.6248 9.02511 10.6248 8.95844 10.6248Z" fill="#7E92A2"/>
<path d="M11.6668 12.3082C11.3584 12.3082 11.0834 12.0748 11.0501 11.7582C11.0084 11.4165 11.2501 11.0998 11.5918 11.0582C13.7918 10.7832 15.9001 9.94984 17.6751 8.65817C17.9501 8.44984 18.3418 8.5165 18.5501 8.79984C18.7501 9.07484 18.6918 9.4665 18.4084 9.67484C16.4584 11.0915 14.1584 11.9998 11.7418 12.3082C11.7168 12.3082 11.6918 12.3082 11.6668 12.3082Z" fill="#7E92A2"/>
<path d="M8.33344 12.3165C8.30844 12.3165 8.28344 12.3165 8.25844 12.3165C5.97511 12.0582 3.75011 11.2248 1.82511 9.90817C1.54177 9.71651 1.46677 9.32484 1.65844 9.0415C1.85011 8.75817 2.24177 8.68317 2.52511 8.87484C4.28344 10.0748 6.30844 10.8332 8.39178 11.0748C8.73344 11.1165 8.98344 11.4248 8.94178 11.7665C8.91678 12.0832 8.65011 12.3165 8.33344 12.3165Z" fill="#7E92A2"/>
</svg>
