<svg width="20" height="20" viewBox="0 0 20 20" fill="none" xmlns="http://www.w3.org/2000/svg">
<path d="M9.99984 1.66675C5.40817 1.66675 1.6665 5.40841 1.6665 10.0001C1.6665 14.5917 5.40817 18.3334 9.99984 18.3334C14.5915 18.3334 18.3332 14.5917 18.3332 10.0001C18.3332 5.40841 14.5915 1.66675 9.99984 1.66675ZM12.7998 11.9167C13.0415 12.1584 13.0415 12.5584 12.7998 12.8001C12.6748 12.9251 12.5165 12.9834 12.3582 12.9834C12.1998 12.9834 12.0415 12.9251 11.9165 12.8001L9.99984 10.8834L8.08317 12.8001C7.95817 12.9251 7.79984 12.9834 7.6415 12.9834C7.48317 12.9834 7.32484 12.9251 7.19984 12.8001C6.95817 12.5584 6.95817 12.1584 7.19984 11.9167L9.1165 10.0001L7.19984 8.08342C6.95817 7.84175 6.95817 7.44175 7.19984 7.20008C7.4415 6.95842 7.8415 6.95842 8.08317 7.20008L9.99984 9.11675L11.9165 7.20008C12.1582 6.95842 12.5582 6.95842 12.7998 7.20008C13.0415 7.44175 13.0415 7.84175 12.7998 8.08342L10.8832 10.0001L12.7998 11.9167Z" fill="#7E92A2"/>
</svg>
