<svg width="30" height="30" viewBox="0 0 30 30" fill="none" xmlns="http://www.w3.org/2000/svg">
<path d="M19.19 5H10.81C7.17 5 5 7.17 5 10.81V19.18C5 22.83 7.17 25 10.81 25H19.18C22.82 25 24.99 22.83 24.99 19.19V10.81C25 7.17 22.83 5 19.19 5ZM19.78 12.7L14.11 18.37C13.97 18.51 13.78 18.59 13.58 18.59C13.38 18.59 13.19 18.51 13.05 18.37L10.22 15.54C9.93 15.25 9.93 14.77 10.22 14.48C10.51 14.19 10.99 14.19 11.28 14.48L13.58 16.78L18.72 11.64C19.01 11.35 19.49 11.35 19.78 11.64C20.07 11.93 20.07 12.4 19.78 12.7Z" fill="#7E92A2"/>
</svg>
