<svg width="20" height="13" viewBox="0 0 20 13" fill="none" xmlns="http://www.w3.org/2000/svg">
<path d="M0 1.2576V12.9647H2.40087V5.31621H2.49805L5.52772 12.9075H7.1626L10.1923 5.3448H10.2894V12.9647H12.6903V1.2576H9.63778L6.41376 9.12331H6.27656L3.05254 1.2576H0Z" fill="#526477"/>
<path d="M14.4152 7.11115H20.0001V5.68206H16.9419V5.61918L17.9594 4.86462C19.3142 3.96144 19.9201 3.22403 19.9201 2.21795C19.9201 0.971781 18.8225 0 17.1191 0C15.4613 0 14.2723 0.880319 14.2723 2.34942H15.9586C15.9586 1.72634 16.4102 1.38336 17.0962 1.38336C17.7364 1.38336 18.2509 1.69204 18.2509 2.24081C18.2509 2.76672 17.8393 3.10398 17.1991 3.62417L14.4152 5.84784V7.11115Z" fill="#526477"/>
</svg>
