<svg width="30" height="45" viewBox="0 0 30 45" fill="none" xmlns="http://www.w3.org/2000/svg">
<path d="M3 14.5C3 12.2909 4.79086 10.5 7 10.5H23C25.2091 10.5 27 12.2909 27 14.5V30.5C27 32.7091 25.2091 34.5 23 34.5H7C4.79086 34.5 3 32.7091 3 30.5V14.5Z" fill="#2DC8A8"/>
<path d="M21.0209 19.4497L13.9498 26.5208C13.5593 26.9113 12.9261 26.9113 12.5356 26.5208L9.70717 23.6924C9.31665 23.3019 9.31665 22.6687 9.70718 22.2782C10.0977 21.8876 10.7309 21.8876 11.1214 22.2782L13.2427 24.3995L19.6067 18.0355C19.9972 17.645 20.6304 17.645 21.0209 18.0355C21.4114 18.4261 21.4114 19.0592 21.0209 19.4497Z" fill="#ECECFE"/>
</svg>
