<svg width="153" height="65" viewBox="0 0 153 65" fill="none" xmlns="http://www.w3.org/2000/svg">
<path fill-rule="evenodd" clip-rule="evenodd" d="M128.842 17.0344V32.5822C128.842 37.0295 132.447 40.6348 136.895 40.6348C141.342 40.6348 144.947 37.0295 144.947 32.5822V17.0344H153V32.5822C153 32.7479 152.997 32.9131 152.993 33.0777H153V48.6255C153 55.9821 148.067 62.1866 141.329 64.1125L138.726 56.4691C142.291 55.6401 144.947 52.443 144.947 48.6255V46.5329C142.579 47.9032 139.828 48.6874 136.895 48.6874C133.3 48.6874 129.981 47.5098 127.301 45.5193L120.789 48.0061H63.8016L57.2903 45.5193C54.6105 47.5098 51.291 48.6874 47.6964 48.6874C39.8726 48.6874 33.3518 43.1086 31.8949 35.7111C30.4157 43.0779 23.9086 48.6275 16.1053 48.6275C7.25183 48.6275 0.066905 41.4837 0.000464575 32.6459L0 3.71914L8.67206 0V18.2313C10.8958 17.0723 13.424 16.417 16.1053 16.417C23.4603 16.417 29.6638 21.3473 31.5911 28.0836V17.0344H39.6437V32.5822C39.6437 37.0295 43.249 40.6348 47.6964 40.6348C52.1437 40.6348 55.749 37.0295 55.749 32.5822V17.0344H128.842ZM120.789 41.8117V23.2287L103.321 41.8117H120.789ZM92.2955 41.8117L109.764 23.2287H92.2955L74.8275 41.8117H92.2955ZM81.2698 23.2287H63.8016V41.8117L81.2698 23.2287ZM16.1053 40.5749C11.6579 40.5749 8.05264 36.9697 8.05264 32.5223C8.05264 28.075 11.6579 24.4697 16.1053 24.4697C20.5526 24.4697 24.1579 28.075 24.1579 32.5223C24.1579 36.9697 20.5526 40.5749 16.1053 40.5749ZM16.1053 35C17.4736 35 18.583 33.8908 18.583 32.5223C18.583 31.1539 17.4736 30.0446 16.1053 30.0446C14.7369 30.0446 13.6275 31.1539 13.6275 32.5223C13.6275 33.8908 14.7369 35 16.1053 35Z" fill="white"/>
</svg>
