<svg width="20" height="20" viewBox="0 0 20 20" fill="none" xmlns="http://www.w3.org/2000/svg">
<path d="M17.5751 5.81676C16.8668 5.03343 15.6834 4.64176 13.9668 4.64176H13.7668V4.60843C13.7668 3.20843 13.7668 1.4751 10.6334 1.4751H9.36678C6.23345 1.4751 6.23345 3.21676 6.23345 4.60843V4.6501H6.03345C4.30845 4.6501 3.13345 5.04176 2.42511 5.8251C1.60011 6.74176 1.62511 7.9751 1.70845 8.81676L1.71678 8.8751L1.78133 9.55283C1.79321 9.67764 1.86043 9.79038 1.96534 9.85903C2.16518 9.98981 2.49963 10.2054 2.70011 10.3168C2.81678 10.3918 2.94178 10.4584 3.06678 10.5251C4.49178 11.3084 6.05845 11.8334 7.65011 12.0918C7.72511 12.8751 8.06678 13.7918 9.89178 13.7918C11.7168 13.7918 12.0751 12.8834 12.1334 12.0751C13.8334 11.8001 15.4751 11.2084 16.9584 10.3418C17.0084 10.3168 17.0418 10.2918 17.0834 10.2668C17.414 10.0799 17.757 9.84966 18.0697 9.62414C18.1638 9.55619 18.2241 9.45114 18.2369 9.33572L18.2501 9.21676L18.2918 8.8251C18.3001 8.7751 18.3001 8.73343 18.3084 8.6751C18.3751 7.83343 18.3584 6.68343 17.5751 5.81676ZM10.9084 11.5251C10.9084 12.4084 10.9084 12.5418 9.88344 12.5418C8.85845 12.5418 8.85845 12.3834 8.85845 11.5334V10.4834H10.9084V11.5251ZM7.42511 4.60843C7.42511 3.19176 7.42511 2.66676 9.36678 2.66676H10.6334C12.5751 2.66676 12.5751 3.2001 12.5751 4.60843V4.6501H7.42511V4.60843Z" fill="white"/>
<path d="M17.3947 11.4452C17.6893 11.305 18.0287 11.5386 17.9992 11.8636L17.7001 15.1584C17.5251 16.8251 16.8418 18.5251 13.1751 18.5251H6.82511C3.15845 18.5251 2.47511 16.8251 2.30011 15.1668L2.01619 12.0436C1.98698 11.7224 2.31861 11.4891 2.61248 11.622C3.56199 12.0516 5.31461 12.8138 6.39725 13.0973C6.53418 13.1332 6.64492 13.2312 6.70487 13.3594C7.21068 14.4412 8.30771 15.0168 9.89178 15.0168C11.4602 15.0168 12.5711 14.419 13.0786 13.3346C13.1386 13.2063 13.2495 13.1083 13.3865 13.0722C14.5361 12.7697 16.4016 11.9178 17.3947 11.4452Z" fill="white"/>
</svg>
