<svg width="22" height="13" viewBox="0 0 22 13" fill="none" xmlns="http://www.w3.org/2000/svg">
<path d="M15.6046 12.7907H14.0595C13.64 12.7907 13.2921 12.4428 13.2921 12.0233C13.2921 11.6037 13.64 11.2558 14.0595 11.2558H15.6046C18.2856 11.2558 20.4651 9.07628 20.4651 6.39535C20.4651 3.71442 18.2856 1.53488 15.6046 1.53488H14.0698C13.6502 1.53488 13.3023 1.18698 13.3023 0.767442C13.3023 0.347907 13.64 0 14.0698 0H15.6046C19.1349 0 22 2.86512 22 6.39535C22 9.92558 19.1349 12.7907 15.6046 12.7907Z" fill="#D6E1E6"/>
<path d="M7.93023 12.7907H6.39535C2.86512 12.7907 0 9.92558 0 6.39535C0 2.86512 2.86512 0 6.39535 0H7.93023C8.34977 0 8.69767 0.347907 8.69767 0.767442C8.69767 1.18698 8.34977 1.53488 7.93023 1.53488H6.39535C3.71442 1.53488 1.53488 3.71442 1.53488 6.39535C1.53488 9.07628 3.71442 11.2558 6.39535 11.2558H7.93023C8.34977 11.2558 8.69767 11.6037 8.69767 12.0233C8.69767 12.4428 8.34977 12.7907 7.93023 12.7907Z" fill="#D6E1E6"/>
<path d="M15.093 7.16279H6.90698C6.48744 7.16279 6.13953 6.81488 6.13953 6.39535C6.13953 5.97581 6.48744 5.62791 6.90698 5.62791H15.093C15.5126 5.62791 15.8605 5.97581 15.8605 6.39535C15.8605 6.81488 15.5126 7.16279 15.093 7.16279Z" fill="#D6E1E6"/>
</svg>
