<svg width="19" height="13" viewBox="0 0 19 13" fill="none" xmlns="http://www.w3.org/2000/svg">
<path d="M0 1.25855V12.9746H1.3272V4.07314H1.44162L5.10287 12.9746H6.38431L10.0456 4.07314H10.16V12.9746H11.4872V1.25855H9.79385L5.81224 10.9838H5.67494L1.69333 1.25855H0Z" fill="#092C4C"/>
<path d="M13.714 7.11656H18.9999V6.10971H15.4988V6.06395L16.9862 4.75963C18.2448 3.66125 18.7939 3.02053 18.7939 2.08234C18.7939 0.89243 17.7642 0 16.254 0C14.7437 0 13.6682 0.869547 13.6682 2.17387H14.8581C14.8581 1.4645 15.4073 0.983961 16.2311 0.983961C17.0091 0.983961 17.604 1.41873 17.604 2.10522C17.604 2.70017 17.1921 3.13495 16.3912 3.84431L13.714 6.22413V7.11656Z" fill="#092C4C"/>
</svg>
