<svg width="16" height="10" viewBox="0 0 16 10" fill="none" xmlns="http://www.w3.org/2000/svg">
<path d="M0 0.970018V10H1.85185V4.10053H1.92681L4.26367 9.95591H5.52469L7.86155 4.12257H7.93651V10H9.78836V0.970018H7.43386L4.94709 7.03704H4.84127L2.3545 0.970018H0Z" fill="white"/>
<path d="M11.1188 5.48501H15.4266V4.38272H13.0677V4.33422L13.8525 3.7522C14.8975 3.05556 15.3649 2.48677 15.3649 1.71076C15.3649 0.749559 14.5183 0 13.2044 0C11.9257 0 11.0086 0.679012 11.0086 1.81217H12.3093C12.3093 1.33157 12.6576 1.06702 13.1867 1.06702C13.6806 1.06702 14.0774 1.30511 14.0774 1.7284C14.0774 2.13404 13.7599 2.39418 13.2661 2.79541L11.1188 4.51058V5.48501Z" fill="white"/>
</svg>
