<svg width="24" height="24" viewBox="0 0 24 24" fill="none" xmlns="http://www.w3.org/2000/svg">
<path d="M13.47 7.41012L15.93 6.20012C16.23 6.05012 16.31 5.66012 16.08 5.42012C15.19 4.44012 14.29 3.62012 13.57 3.00012C13.24 2.72012 12.75 2.95012 12.75 3.38012V6.96012C12.75 7.33012 13.14 7.57012 13.47 7.41012Z" fill="white"/>
<path d="M12.75 19.7401V21.3901C12.75 21.6901 13.02 21.9401 13.32 21.8901C16.05 21.4401 18.33 19.6101 19.41 17.1501C19.6 16.7301 19.14 16.3101 18.72 16.5101L13.03 19.3001C12.86 19.3801 12.75 19.5501 12.75 19.7401Z" fill="white"/>
<path d="M11.25 3.36012C11.25 2.93012 10.76 2.70012 10.43 2.97012C8.06997 4.95012 3.87997 9.12012 3.89997 13.9001C3.89997 17.9201 6.83997 21.2501 10.68 21.8901C10.98 21.9401 11.25 21.6901 11.25 21.3901V3.36012Z" fill="white"/>
<path d="M13.44 12.4701L18.73 10.2501C19 10.1301 19.13 9.82012 19 9.56012C18.63 8.83012 18.2 8.12012 17.73 7.46012C17.59 7.26012 17.33 7.20012 17.11 7.30012L13.02 9.29012C12.85 9.37012 12.74 9.55012 12.74 9.74012V12.0101C12.75 12.3601 13.11 12.6101 13.44 12.4701Z" fill="white"/>
<path d="M19.83 14.3101C19.99 14.2301 20.09 14.0801 20.09 13.9101C20.09 13.2701 20.01 12.6401 19.87 12.0201C19.8 11.7201 19.47 11.5601 19.19 11.6801L13.05 14.3001C12.87 14.3801 12.75 14.5601 12.75 14.7601V16.9601C12.75 17.3301 13.14 17.5701 13.47 17.4101L19.37 14.5401L19.83 14.3101Z" fill="white"/>
</svg>
