<svg width="20" height="20" viewBox="0 0 20 20" fill="none" xmlns="http://www.w3.org/2000/svg">
<path d="M9.58317 18.1248C4.87484 18.1248 1.0415 14.2915 1.0415 9.58317C1.0415 4.87484 4.87484 1.0415 9.58317 1.0415C14.2915 1.0415 18.1248 4.87484 18.1248 9.58317C18.1248 14.2915 14.2915 18.1248 9.58317 18.1248ZM9.58317 2.2915C5.55817 2.2915 2.2915 5.5665 2.2915 9.58317C2.2915 13.5998 5.55817 16.8748 9.58317 16.8748C13.6082 16.8748 16.8748 13.5998 16.8748 9.58317C16.8748 5.5665 13.6082 2.2915 9.58317 2.2915Z" fill="#7E92A2"/>
<path d="M18.3332 18.9582C18.1748 18.9582 18.0165 18.8998 17.8915 18.7748L16.2248 17.1082C15.9832 16.8665 15.9832 16.4665 16.2248 16.2248C16.4665 15.9832 16.8665 15.9832 17.1082 16.2248L18.7748 17.8915C19.0165 18.1332 19.0165 18.5332 18.7748 18.7748C18.6498 18.8998 18.4915 18.9582 18.3332 18.9582Z" fill="#7E92A2"/>
</svg>
