<svg width="30" height="30" viewBox="0 0 30 30" fill="none" xmlns="http://www.w3.org/2000/svg">
<path d="M22.51 8.85L16.57 5.42C15.6 4.86 14.4 4.86 13.42 5.42L7.49004 8.85C6.52004 9.41 5.92004 10.45 5.92004 11.58V18.42C5.92004 19.54 6.52004 20.58 7.49004 21.15L13.43 24.58C14.4 25.14 15.6 25.14 16.58 24.58L22.52 21.15C23.49 20.59 24.09 19.55 24.09 18.42V11.58C24.08 10.45 23.48 9.42 22.51 8.85ZM14.25 10.75C14.25 10.34 14.59 10 15 10C15.41 10 15.75 10.34 15.75 10.75V16C15.75 16.41 15.41 16.75 15 16.75C14.59 16.75 14.25 16.41 14.25 16V10.75ZM15.92 19.63C15.87 19.75 15.8 19.86 15.71 19.96C15.52 20.15 15.27 20.25 15 20.25C14.87 20.25 14.74 20.22 14.62 20.17C14.49 20.12 14.39 20.05 14.29 19.96C14.2 19.86 14.13 19.75 14.07 19.63C14.02 19.51 14 19.38 14 19.25C14 18.99 14.1 18.73 14.29 18.54C14.39 18.45 14.49 18.38 14.62 18.33C14.99 18.17 15.43 18.26 15.71 18.54C15.8 18.64 15.87 18.74 15.92 18.87C15.97 18.99 16 19.12 16 19.25C16 19.38 15.97 19.51 15.92 19.63Z" fill="#FE8084"/>
</svg>
