<svg width="33" height="36" viewBox="0 0 33 36" fill="none" xmlns="http://www.w3.org/2000/svg">
<path d="M32.234 17.7942C32.234 17.2878 32.1132 16.8127 31.9108 16.3808C30.5608 12.0256 24.2404 12.3437 15.2502 12.1313C13.7471 12.096 14.6069 10.3212 15.1344 6.42505C15.4777 3.89107 13.8438 0 11.0974 0C6.56901 0 10.9252 3.57193 6.92138 12.4051C4.78204 17.1247 0 14.481 0 19.2218V30.0131C0 31.8585 0.181214 33.6323 2.7766 33.9243C5.29246 34.2072 4.72667 36.0002 8.35599 36.0002H26.5217C28.3721 36.0002 29.8772 34.4941 29.8772 32.6437C29.8772 31.8766 29.6084 31.1779 29.1745 30.6121C30.2014 30.0373 30.9061 28.952 30.9061 27.6936C30.9061 26.9284 30.6383 26.2297 30.2054 25.665C31.2353 25.0911 31.942 24.0048 31.942 22.7444C31.942 21.8293 31.5715 20.9997 30.9745 20.3926C31.7366 19.7775 32.234 18.8473 32.234 17.7942Z" fill="#FFC357"/>
<path opacity="0.1" d="M20.2175 21.1495H28.8795C30.0574 21.1495 31.1628 20.5193 31.7649 19.5055C32.0125 19.0877 31.8746 18.5471 31.4558 18.2984C31.038 18.0497 30.4974 18.1897 30.2487 18.6075C29.9638 19.0897 29.4373 19.3877 28.8785 19.3877H20.0091C19.1302 19.3877 18.4154 18.6729 18.4154 17.794C18.4154 16.9151 19.1302 16.2003 20.0091 16.2003H25.9358C26.4221 16.2003 26.8167 15.8057 26.8167 15.3194C26.8167 14.8332 26.4221 14.4385 25.9358 14.4385H20.0081C18.1577 14.4385 16.6526 15.9436 16.6526 17.794C16.6526 18.8259 17.1308 19.7391 17.8657 20.3552C17.2466 20.9643 16.861 21.8099 16.861 22.7442C16.861 23.7791 17.3422 24.6953 18.0812 25.3104C17.466 25.9185 17.0845 26.7611 17.0845 27.6934C17.0845 28.8209 17.6473 29.8156 18.503 30.4247C17.9755 31.0176 17.6452 31.7898 17.6452 32.6435C17.6452 34.4939 19.1503 35.999 21.0007 35.999H26.5217C27.6996 35.999 28.806 35.3698 29.4081 34.356C29.6567 33.9382 29.5188 33.3976 29.101 33.1489C28.6822 32.9023 28.1416 33.0382 27.8939 33.456C27.607 33.9382 27.0805 34.2372 26.5217 34.2372H21.0007C20.1218 34.2372 19.407 33.5224 19.407 32.6435C19.407 31.7646 20.1218 31.0498 21.0007 31.0498H27.5506C28.7285 31.0498 29.8359 30.4196 30.437 29.4058C30.6856 28.987 30.5477 28.4464 30.1299 28.1987C29.7081 27.946 29.1695 28.088 28.9228 28.5058C28.6319 28.9961 28.1184 29.288 27.5506 29.288H20.44C19.5611 29.288 18.8463 28.5722 18.8463 27.6934C18.8463 26.8145 19.5611 26.0997 20.44 26.0997H28.5855C29.7634 26.0997 30.8699 25.4705 31.4719 24.4567C31.7206 24.0389 31.5826 23.4982 31.1648 23.2496C30.745 23.0019 30.2054 23.1388 29.9577 23.5566C29.6668 24.0459 29.1534 24.3379 28.5855 24.3379H20.2175C19.3386 24.3379 18.6238 23.6231 18.6238 22.7442C18.6238 21.8653 19.3376 21.1495 20.2175 21.1495Z" fill="black"/>
</svg>
