<svg width="32" height="32" viewBox="0 0 32 32" fill="none" xmlns="http://www.w3.org/2000/svg">
<path d="M12 2.66669C8.50671 2.66669 5.66671 5.50669 5.66671 9.00002C5.66671 12.4267 8.34671 15.2 11.84 15.32C11.9467 15.3067 12.0534 15.3067 12.1334 15.32C12.16 15.32 12.1734 15.32 12.2 15.32C12.2134 15.32 12.2134 15.32 12.2267 15.32C15.64 15.2 18.32 12.4267 18.3334 9.00002C18.3334 5.50669 15.4934 2.66669 12 2.66669Z" fill="#2DC8A8"/>
<path d="M18.7734 18.8667C15.0534 16.3867 8.98671 16.3867 5.24004 18.8667C3.54671 20 2.61337 21.5334 2.61337 23.1734C2.61337 24.8134 3.54671 26.3334 5.22671 27.4534C7.09337 28.7067 9.54671 29.3334 12 29.3334C14.4534 29.3334 16.9067 28.7067 18.7734 27.4534C20.4534 26.32 21.3867 24.8 21.3867 23.1467C21.3734 21.5067 20.4534 19.9867 18.7734 18.8667Z" fill="#2DC8A8"/>
<path d="M26.6534 9.78669C26.8667 12.3734 25.0267 14.64 22.48 14.9467C22.4667 14.9467 22.4667 14.9467 22.4534 14.9467H22.4134C22.3334 14.9467 22.2534 14.9467 22.1867 14.9734C20.8934 15.04 19.7067 14.6267 18.8134 13.8667C20.1867 12.64 20.9734 10.8 20.8134 8.80002C20.72 7.72002 20.3467 6.73335 19.7867 5.89335C20.2934 5.64002 20.88 5.48002 21.48 5.42669C24.0934 5.20002 26.4267 7.14669 26.6534 9.78669Z" fill="#2DC8A8"/>
<path d="M29.32 22.12C29.2134 23.4134 28.3867 24.5334 27 25.2934C25.6667 26.0267 23.9867 26.3734 22.32 26.3334C23.28 25.4667 23.84 24.3867 23.9467 23.24C24.08 21.5867 23.2934 20 21.72 18.7334C20.8267 18.0267 19.7867 17.4667 18.6534 17.0534C21.6 16.2 25.3067 16.7734 27.5867 18.6134C28.8134 19.6 29.44 20.84 29.32 22.12Z" fill="#2DC8A8"/>
</svg>
