<svg width="20" height="20" viewBox="0 0 20 20" fill="none" xmlns="http://www.w3.org/2000/svg">
<path d="M16.6666 16.0503H9.10824C8.73324 16.0503 8.4249 15.7419 8.4249 15.3669C8.4249 14.9919 8.73324 14.6836 9.10824 14.6836H16.6666C17.0416 14.6836 17.3499 14.9919 17.3499 15.3669C17.3499 15.7503 17.0416 16.0503 16.6666 16.0503Z" fill="#7E92A2"/>
<path d="M16.6666 10.8086H9.10824C8.73324 10.8086 8.4249 10.5003 8.4249 10.1253C8.4249 9.75026 8.73324 9.44193 9.10824 9.44193H16.6666C17.0416 9.44193 17.3499 9.75026 17.3499 10.1253C17.3499 10.5003 17.0416 10.8086 16.6666 10.8086Z" fill="#7E92A2"/>
<path d="M16.6666 5.55859H9.10824C8.73324 5.55859 8.4249 5.25026 8.4249 4.87526C8.4249 4.50026 8.73324 4.19193 9.10824 4.19193H16.6666C17.0416 4.19193 17.3499 4.50026 17.3499 4.87526C17.3499 5.25026 17.0416 5.55859 16.6666 5.55859Z" fill="#7E92A2"/>
<path d="M4.09157 6.69193C3.90824 6.69193 3.73324 6.61693 3.60824 6.49193L2.8499 5.73359C2.58324 5.46693 2.58324 5.03359 2.8499 4.76693C3.11657 4.50026 3.5499 4.50026 3.81657 4.76693L4.09157 5.04193L5.8749 3.25859C6.14157 2.99193 6.5749 2.99193 6.84157 3.25859C7.10824 3.52526 7.10824 3.95859 6.84157 4.22526L4.5749 6.49193C4.44157 6.61693 4.2749 6.69193 4.09157 6.69193Z" fill="#7E92A2"/>
<path d="M4.09157 11.9419C3.91657 11.9419 3.74157 11.8753 3.60824 11.7419L2.8499 10.9836C2.58324 10.7169 2.58324 10.2836 2.8499 10.0169C3.11657 9.75026 3.5499 9.75026 3.81657 10.0169L4.09157 10.2919L5.8749 8.50859C6.14157 8.24193 6.5749 8.24193 6.84157 8.50859C7.10824 8.77526 7.10824 9.20859 6.84157 9.47526L4.5749 11.7419C4.44157 11.8753 4.26657 11.9419 4.09157 11.9419Z" fill="#7E92A2"/>
<path d="M4.09157 16.9419C3.91657 16.9419 3.74157 16.8753 3.60824 16.7419L2.8499 15.9836C2.58324 15.7169 2.58324 15.2836 2.8499 15.0169C3.11657 14.7503 3.5499 14.7503 3.81657 15.0169L4.09157 15.2919L5.8749 13.5086C6.14157 13.2419 6.5749 13.2419 6.84157 13.5086C7.10824 13.7753 7.10824 14.2086 6.84157 14.4753L4.5749 16.7419C4.44157 16.8753 4.26657 16.9419 4.09157 16.9419Z" fill="#7E92A2"/>
</svg>
